<svg width="12" height="10" viewBox="0 0 12 10" fill="none" xmlns="http://www.w3.org/2000/svg">
<path d="M11.27 6.44L10.205 7.5L11.27 8.56L10.56 9.27L9.5 8.205L8.44 9.27L7.735 8.56L8.795 7.5L7.735 6.44L8.44 5.735L9.5 6.795L10.56 5.735L11.27 6.44ZM6 2.5C5.17 2.5 4.5 3.17 4.5 4C4.5 4.83 5.17 5.5 6 5.5C6.83 5.5 7.5 4.83 7.5 4C7.5 3.17 6.83 2.5 6 2.5ZM6 6.75C4.12 6.75 2.415 5.68 1.59 4C1.99413 3.17485 2.62165 2.47963 3.40124 1.99337C4.18083 1.50712 5.0812 1.24934 6 1.24934C6.9188 1.24934 7.81917 1.50712 8.59876 1.99337C9.37835 2.47963 10.0059 3.17485 10.41 4C10.315 4.195 10.205 4.385 10.085 4.565C10.425 4.63 10.75 4.75 11.035 4.925C11.215 4.635 11.37 4.325 11.5 4C10.635 1.805 8.5 0.25 6 0.25C3.5 0.25 1.365 1.805 0.5 4C1.365 6.195 3.5 7.75 6 7.75C6.175 7.75 6.345 7.75 6.515 7.725C6.5 7.65 6.5 7.575 6.5 7.5C6.5 7.225 6.54 6.96 6.61 6.705C6.41 6.73 6.205 6.75 6 6.75Z" fill="white"/>
</svg>
