<svg width="12" height="10" viewBox="0 0 12 10" fill="none" xmlns="http://www.w3.org/2000/svg">
<path d="M6 0.25C3.5 0.25 1.365 1.805 0.5 4C1.365 6.195 3.5 7.75 6 7.75C6.18 7.75 6.36 7.75 6.54 7.725C6.51428 7.56796 6.5009 7.40914 6.5 7.25C6.5 7.07 6.52 6.89 6.55 6.71C6.37 6.73 6.185 6.75 6 6.75C4.12 6.75 2.415 5.68 1.59 4C1.99413 3.17485 2.62165 2.47963 3.40124 1.99337C4.18083 1.50712 5.0812 1.24934 6 1.24934C6.9188 1.24934 7.81917 1.50712 8.59876 1.99337C9.37835 2.47963 10.0059 3.17485 10.41 4C10.35 4.12 10.28 4.225 10.215 4.34C10.545 4.42 10.86 4.555 11.145 4.75C11.28 4.5 11.4 4.25 11.5 4C10.635 1.805 8.5 0.25 6 0.25ZM6 2.5C5.60218 2.5 5.22064 2.65804 4.93934 2.93934C4.65804 3.22064 4.5 3.60218 4.5 4C4.5 4.39782 4.65804 4.77936 4.93934 5.06066C5.22064 5.34196 5.60218 5.5 6 5.5C6.39783 5.5 6.77936 5.34196 7.06066 5.06066C7.34197 4.77936 7.5 4.39782 7.5 4C7.5 3.60218 7.34197 3.22064 7.06066 2.93934C6.77936 2.65804 6.39783 2.5 6 2.5ZM9 5.25V6.75H7.5V7.75H9V9.25H10V7.75H11.5V6.75H10V5.25H9Z" fill="white"/>
</svg>
