<svg width="22" height="21" viewBox="0 0 22 21" fill="none" xmlns="http://www.w3.org/2000/svg">
<path d="M8.47403 15L17.655 18.284C17.8093 18.3394 17.974 18.3597 18.137 18.3433C18.3001 18.3269 18.4575 18.2743 18.5976 18.1893C18.7378 18.1043 18.8571 17.989 18.947 17.8519C19.0369 17.7148 19.0949 17.5594 19.117 17.397L20.99 3.239C21.104 2.377 20.211 1.734 19.423 2.109L1.62403 10.605C0.744028 11.025 0.810028 12.295 1.73003 12.622L4.17003 13.49L5.50003 13.957M12 16.26L10.01 19.586C9.36003 20.394 8.05103 19.937 8.05103 18.903V16.24C8.05106 15.7375 8.24028 15.2534 8.58103 14.884L12.452 10.684" stroke="white" stroke-width="2" stroke-linecap="round" stroke-linejoin="round"/>
</svg>
